<?xml version="1.0" encoding="utf-8"?>
<!-- Generator: Adobe Illustrator 23.0.5, SVG Export Plug-In . SVG Version: 6.00 Build 0)  -->
<svg version="1.1" id="Layer_1" xmlns="http://www.w3.org/2000/svg" xmlns:xlink="http://www.w3.org/1999/xlink" x="0px" y="0px"
	 viewBox="0 0 564.814 198.524" style="enable-background:new 0 0 564.814 198.524;" xml:space="preserve">
<style type="text/css">
	.st0{fill:#BC9F33;}
	.st1{fill:#BC9E33;}
	.st2{fill:#FFFFFF;}
</style>
<g>
	<g>
		<path class="st0" d="M414.85,72.98c-1.593-3.308-4.792-4.798-8.437-4.339c-2.763,0.347-5.017,1.662-7.006,3.506
			c-4.289,3.976-6.983,9.019-9.382,14.25c-0.387,0.849-0.78,1.699-1.17,2.548c0.129-2.009,0.393-3.956,0.783-5.876
			c0.757-3.688,0.611-7.128-2.369-9.904c-2.991-2.796-6.312-4.868-10.611-4.703c-1.216,0.043-1.894,0.605-2.072,1.903
			c-0.535,3.9-1.054,7.806-1.778,11.672c-2.009,10.79-4.138,21.563-6.173,32.35c-0.106,0.575-0.255,1.117-0.44,1.636l-2.089,13.166
			c0,0,0.106,1.114,0.139,2.872c0.374,2.039,1.329,3.777,2.72,5.297c2.822,3.09,6.117,5.426,10.526,5.479
			c1.937,0.023,2.849-0.846,3.143-2.743c0.565-3.572,1.084-7.151,1.699-10.714c1.652-9.561,3.741-19.025,6.887-28.219
			c1.742-5.083,3.744-10.063,7.452-14.105c4.204-4.577,9.237-4.709,13.652-0.344c0.763,0.753,1.491,0.896,2.31,0.423
			c0.654-0.377,1.358-0.856,1.751-1.474C417.011,81.546,416.899,77.236,414.85,72.98"/>
		<path class="st0" d="M464.966,72.98c-1.593-3.308-4.792-4.798-8.437-4.339c-2.763,0.347-5.017,1.662-7.006,3.506
			c-4.289,3.976-6.983,9.019-9.382,14.25c-0.387,0.849-0.78,1.699-1.17,2.548c0.129-2.009,0.393-3.956,0.783-5.876
			c0.757-3.688,0.611-7.128-2.369-9.904c-2.991-2.796-6.312-4.868-10.611-4.703c-1.216,0.043-1.894,0.605-2.072,1.903
			c-0.535,3.9-1.054,7.806-1.778,11.672c-2.009,10.79-4.138,21.563-6.173,32.35c-0.106,0.575-0.255,1.117-0.44,1.636l-2.089,13.166
			c0,0,0.106,1.114,0.139,2.872c0.374,2.039,1.329,3.777,2.72,5.297c2.822,3.09,6.117,5.426,10.526,5.479
			c1.937,0.023,2.849-0.846,3.143-2.743c0.565-3.572,1.084-7.151,1.699-10.714c1.652-9.561,3.741-19.025,6.89-28.219
			c1.738-5.083,3.741-10.063,7.452-14.105c4.2-4.577,9.233-4.709,13.648-0.344c0.763,0.753,1.491,0.896,2.31,0.423
			c0.654-0.377,1.358-0.856,1.751-1.474C467.127,81.546,467.015,77.236,464.966,72.98"/>
		<path class="st0" d="M356.182,124.834c-6.459,6.458-9.403,9.046-19.596,9.905c-0.402,0.032-0.797,0.049-1.189,0.049
			c-0.023,0-0.042,0-0.065,0c-2.766-0.013-5.299-0.849-7.524-2.293c-6.274-4.664-6.134-15.136-5.062-19.187
			c0.152-0.039,15.579-3.097,22.294-6.569c5.445-2.811,10.368-6.306,13.853-11.495c2.598-3.87,3.841-8.123,3.132-12.771
			c-0.965-6.277-4.875-10.238-10.656-12.227c-10.355-3.56-20.13-1.749-28.619,4.839c-13.429,10.416-19.57,24.405-18.792,41.293
			c0.188,1.869,0.521,3.828,1.046,5.801c0.978,3.676,2.721,7.152,5.182,10.057c0.01,0.013,0.023,0.026,0.032,0.039
			c0.981,1.153,3.291,3.33,5.979,5.163c0.813,0.554,1.564,1.182,2.426,1.652c3.171,1.72,5.798,2.818,9.16,3.216v0.026
			c0.12,0.01,0.243,0.013,0.366,0.019c2.151,0.22,4.606,0.162,7.699-0.198l-0.003-0.013c5.769-0.726,11.213-2.769,15.955-6.416
			c4.881-3.751,7.611-7.012,7.611-7.012c1.597-1.597,0.308-3.116-0.266-3.689C357.429,123.305,356.182,124.834,356.182,124.834
			 M335.242,81.03c1.584-1.794,3.42-3.313,5.736-4.12c3.799-1.325,6.769,0.751,6.886,4.787c0.104,3.385-0.975,6.458-2.662,9.312
			c-4.599,7.777-11.074,13.192-19.929,15.524c-0.505,0.133-1.033,0.191-1.785,0.324C325.545,96.302,328.754,88.373,335.242,81.03"/>
		<path class="st0" d="M303.012,128.611c-0.959-0.389-1.694-0.382-2.824,0.745c-1.905,1.905-4.207,3.757-6.812,4.363
			c-2.666,0.625-4.952-1.127-5.007-3.867c-0.029-1.441,0.065-2.912,0.327-4.324c1.84-9.85,4.182-23.897,6.054-33.737
			c0.405-2.121,0.784-4.253,1.121-6.387c0.282-1.794,0.068-3.608-0.577-5.27c-0.071-0.246-0.133-0.492-0.233-0.738
			c-2.614-6.293-8.758-10.679-15.165-10.75c-4.654-0.049-8.522,1.872-11.961,4.81c-4.522,3.861-7.676,8.758-10.442,13.937
			c-0.667,1.25-1.299,2.517-1.947,3.773c0.457-3.333,0.955-6.601,0.032-9.914c-2.607-9.393-14.073-17.694-25.247-8.852
			c-4.528,3.579-7.835,8.143-10.643,13.092c-1.781,3.145-3.369,6.403-5.059,9.649c0-0.269,1.302-5.02,1.71-6.85
			c0.946-4.24,2.743-9.131-0.379-13.179c-2.504-3.245-5.743-5.377-9.694-6.413c-0.683-0.178-1.419-0.266-2.125-0.24
			c-1.273,0.045-2.313,1.049-2.475,2.313c-0.372,2.934-0.664,5.885-1.172,8.8c-2.604,14.886-5.289,29.753-7.887,44.642
			c-0.437,2.504-1.124,5.121-0.084,7.582c2.141,5.092,6.115,8.243,11.366,9.688c2.497,0.687,3.79-0.259,4.243-2.727
			c1.425-7.741,2.824-15.495,5.27-22.977c3.33-10.196,7.271-20.091,13.837-28.655c1.81-2.361,3.77-4.599,6.455-6.028
			c2.98-1.587,4.648-0.748,5.283,2.611c0.11,0.606,0.149,1.613,0.094,2.225c-0.337,3.66-0.512,7.356-1.205,10.954
			c-1.713,8.888-3.764,17.707-5.558,26.582c-0.502,2.491-0.939,5.095-0.761,7.602c0.347,4.894,7.242,10.539,12.428,10.533
			c1.6,0,2.967-1.189,3.239-2.766c0.275-1.59,0.534-3.184,0.826-4.771c2.261-12.169,5.616-23.997,11.058-35.159
			c2.63-5.386,5.633-10.572,9.953-14.795c1.5-1.467,2.779-2.41,4.654-3.398c1.263-0.661,3.009-0.129,3.459,1.234
			c0.191,0.586,0.359,1.247,0.291,1.843c-0.003,0.026-0.016,0.1-0.026,0.201c-0.858,4.771-1.717,9.545-2.549,14.323
			c-1.509,8.658-3.223,17.289-4.379,25.996c-1.428,10.76,9.532,20.195,20.127,17.649c5.124-1.231,11.119-7.281,12.35-9.082
			C304.382,130.82,304.045,129.026,303.012,128.611"/>
		<path class="st0" d="M97.177,113.006c-10.899,10.899-15.864,15.262-33.06,16.713c-0.677,0.055-1.347,0.084-2.008,0.084V129.8
			c-0.036,0-0.071,0-0.104,0c-4.674-0.019-8.946-1.432-12.7-3.867c-8.269-6.144-9.927-18.245-9.403-26.514
			c0.23-11.259,3.126-21.798,3.126-21.798l0.075-0.052c3.504-15.307,8.875-27.298,18.744-38.472
			c2.672-3.025,5.765-5.587,9.662-6.947c6.112-2.131,11.446,1.594,11.641,8.058c0.168,5.723-1.649,10.912-4.499,15.725
			c-1.344,2.277-2.792,4.415-4.347,6.433c-2.105,2.74-1.208,6.87,1.992,8.195c7.132,2.957,17.785-0.729,22.653-7.488
			c1.662-2.306,7.595-11.417,6.799-20.969c-0.888-10.676-6.938-17.85-16.694-21.202c-17.464-6.005-33.963-2.954-48.286,8.162
			C18.114,46.64,7.743,70.239,9.055,98.735c0.538,5.224,1.717,10.876,3.958,16.321c1.561,3.806,3.861,7.268,6.523,10.403l0.087,0.1
			c1.652,1.943,5.555,5.616,10.089,8.709c1.373,0.936,2.637,1.995,4.097,2.789c5.341,2.902,9.782,4.755,15.453,5.428v0.045
			c0.204,0.013,0.408,0.019,0.612,0.029c3.631,0.373,7.777,0.272,12.988-0.334v-0.023c9.733-1.221,18.925-4.674,26.925-10.825
			c8.233-6.332,12.839-11.835,12.839-11.835c2.692-2.695,0.515-5.257-0.45-6.222C99.279,110.427,97.177,113.006,97.177,113.006"/>
		<path class="st0" d="M519.279,70.801c-1.869,0.084-2.86,0.81-2.983,2.815c-0.596,9.736-3.061,19.081-6.407,28.175
			c-3.32,9.021-7.223,17.804-13.898,24.943c-1.736,1.859-3.935,3.54-6.248,4.547c-4.078,1.772-7.022-0.321-6.938-4.713
			c0.055-2.947,0.389-5.921,0.933-8.82c1.849-9.851,3.898-19.663,5.753-29.516c1.557-8.273-4.128-16.303-12.481-17.352
			c-3.059-0.384-4.181,0.409-4.514,2.529c-1.182,7.479-2.413,14.948-3.667,22.417c-1.652,9.869-3.689,19.689-4.923,29.61
			c-1.286,10.355,6.685,18.967,17.066,19.301c7.411,0.24,13.202-3.142,17.746-8.518c3.679-4.359,6.717-9.26,10.258-14.228
			c-0.437,3.762-2.259,14.389-3.869,22.787c-1.579,8.233-3.828,16.31-7.258,23.959c-1.714,3.822-5.302,11.572-9.857,15.216
			c-2.989,2.391-9.333,1.768-11.784-1.171c-0.281-0.337-0.482-0.69-0.638-1.049c-1.798-3.702-6.657-2.032-5.155,1.713
			c0,0,2.345,4.2,7.759,6.297c10.696,4.141,20.098,0.382,27.732-7.67c6.688-7.055,10.225-15.868,13.218-24.956
			c2.172-6.65,3.899-13.439,5.174-20.317c1.234-6.659,2.466-13.312,3.668-19.972c1.827-10.109,3.585-20.23,5.37-30.345
			C534.732,78.594,527.393,70.428,519.279,70.801z"/>
		<path class="st0" d="M187.029,129.012c-0.959-0.389-1.694-0.382-2.824,0.745c-1.905,1.905-4.207,3.757-6.812,4.363
			c-2.666,0.625-5.073-1.438-5.128-4.178c0-0.01-0.007-0.02-0.008-0.03l0.008,0c0.101-6.377,2.327-14.509,2.927-17.007
			c2.624-10.99,5.474-21.928,8.285-32.872c1.425-5.542-1.402-8.123-6.332-7.271c-0.998,0.175-2.057,0.706-2.795,1.192
			c-2.902,1.904-5.276,0.832-8.065-0.599c-17.866-9.157-35.227-5.364-47.658,10.377c-8.194,10.374-12.094,22.255-11.469,35.499
			c0.466,9.931,4.483,17.818,14.187,21.513c9.879,3.764,18.653,1.124,25.879-6.264c2.649-2.711,4.844-5.888,7.253-9.136
			c-0.925,10.491,9.781,19.512,20.166,17.016c5.124-1.231,11.119-7.281,12.35-9.082
			C188.399,131.221,188.062,129.427,187.029,129.012z M144.888,122.654c-1.713,1.963-3.731,3.748-5.882,5.218
			c-6.109,4.175-11.197,2.011-12.573-5.237c-0.317-1.662-0.275-3.388-0.424-5.429c0.878-12.334,4.259-24.072,12.771-33.824
			c6.941-7.948,15.948-8.353,22.442-1.098c0.852,0.949,1.448,2.776,1.179,3.974C159.385,99.729,154.07,112.153,144.888,122.654z"/>
	</g>
	<g>
		<path class="st1" d="M186.274,166.402L186.274,166.402c0.976,0,1.768,0.791,1.768,1.768v21.212c0,0.976-0.791,1.768-1.768,1.768
			l0,0c-0.976,0-1.768-0.791-1.768-1.768V168.17C184.507,167.194,185.298,166.402,186.274,166.402z"/>
		<path class="st1" d="M199.832,189.789c-1.992-1.096-3.553-2.604-4.684-4.525c-1.131-1.921-1.697-4.083-1.697-6.488
			c0-2.404,0.565-4.566,1.697-6.487c1.131-1.921,2.698-3.429,4.702-4.525c2.003-1.096,4.242-1.644,6.717-1.644
			c1.932,0,3.7,0.324,5.303,0.972c1.039,0.421,1.979,0.972,2.819,1.654c0.741,0.602,0.756,1.736,0.071,2.4l-0.002,0.001
			c-0.588,0.57-1.498,0.595-2.14,0.088c-1.662-1.313-3.632-1.969-5.91-1.969c-1.838,0-3.5,0.412-4.985,1.237
			c-1.485,0.825-2.646,1.962-3.483,3.412c-0.837,1.45-1.255,3.07-1.255,4.861c0,1.792,0.418,3.412,1.255,4.861
			c0.837,1.449,1.998,2.587,3.483,3.412s3.146,1.237,4.985,1.237c2.263,0,4.233-0.667,5.909-2.001
			c0.641-0.51,1.555-0.485,2.143,0.086l0,0c0.685,0.664,0.67,1.798-0.071,2.4c-0.844,0.686-1.79,1.244-2.838,1.672
			c-1.615,0.66-3.389,0.99-5.321,0.99C204.057,191.432,201.823,190.884,199.832,189.789z"/>
		<path class="st1" d="M237.481,189.577v0.07c0,0.83-0.673,1.503-1.503,1.503h-13.941c-0.558,0-1.011-0.453-1.011-1.011v-22.725
			c0-0.558,0.453-1.011,1.011-1.011h13.862c0.83,0,1.503,0.673,1.503,1.503v0.07c0,0.83-0.673,1.503-1.503,1.503h-10.327
			c-0.558,0-1.011,0.453-1.011,1.011v5.58c0,0.558,0.453,1.011,1.011,1.011h9.896c0.83,0,1.503,0.673,1.503,1.503l0,0
			c0,0.83-0.673,1.503-1.503,1.503h-9.896c-0.558,0-1.011,0.453-1.011,1.011v5.968c0,0.558,0.453,1.011,1.011,1.011h10.406
			C236.808,188.074,237.481,188.747,237.481,189.577z"/>
		<path class="st1" d="M321.829,189.577v0.07c0,0.83-0.673,1.503-1.503,1.503h-13.941c-0.558,0-1.011-0.453-1.011-1.011v-22.725
			c0-0.558,0.453-1.011,1.011-1.011h13.862c0.83,0,1.503,0.673,1.503,1.503v0.07c0,0.83-0.673,1.503-1.503,1.503H309.92
			c-0.558,0-1.011,0.453-1.011,1.011v5.58c0,0.558,0.453,1.011,1.011,1.011h9.896c0.83,0,1.503,0.673,1.503,1.503l0,0
			c0,0.83-0.673,1.503-1.503,1.503h-9.896c-0.558,0-1.011,0.453-1.011,1.011v5.968c0,0.558,0.453,1.011,1.011,1.011h10.406
			C321.156,188.074,321.829,188.747,321.829,189.577z"/>
		<path class="st1" d="M258.588,189.789c-1.992-1.096-3.553-2.604-4.684-4.525c-1.131-1.921-1.697-4.083-1.697-6.488
			c0-2.404,0.565-4.566,1.697-6.487c1.131-1.921,2.698-3.429,4.702-4.525c2.003-1.096,4.242-1.644,6.717-1.644
			c1.932,0,3.7,0.324,5.303,0.972c1.039,0.421,1.979,0.972,2.819,1.654c0.741,0.602,0.756,1.736,0.071,2.4l-0.001,0.001
			c-0.588,0.57-1.498,0.595-2.14,0.088c-1.662-1.313-3.632-1.969-5.91-1.969c-1.838,0-3.5,0.412-4.985,1.237
			c-1.485,0.825-2.646,1.962-3.483,3.412c-0.837,1.45-1.255,3.07-1.255,4.861c0,1.792,0.418,3.412,1.255,4.861
			c0.837,1.449,1.998,2.587,3.483,3.412c1.485,0.825,3.146,1.237,4.985,1.237c2.263,0,4.233-0.667,5.909-2.001
			c0.641-0.51,1.555-0.485,2.143,0.086v0c0.685,0.664,0.67,1.798-0.071,2.4c-0.844,0.686-1.79,1.244-2.838,1.672
			c-1.615,0.66-3.389,0.99-5.321,0.99C262.813,191.432,260.58,190.884,258.588,189.789z"/>
		<path class="st1" d="M295.858,190.481l-4.869-6.932c-0.66,0.048-1.178,0.07-1.555,0.07h-6.117v5.763
			c0,0.976-0.791,1.768-1.768,1.768l0,0c-0.976,0-1.768-0.791-1.768-1.768v-21.126c0-1.024,0.83-1.854,1.854-1.854h7.798
			c3.204,0,5.726,0.766,7.565,2.298c1.838,1.532,2.758,3.641,2.758,6.328c0,1.909-0.471,3.536-1.414,4.879
			c-0.943,1.344-2.286,2.322-4.03,2.934l4.117,5.828c0.736,1.042-0.009,2.48-1.285,2.48l0,0
			C296.633,191.15,296.153,190.9,295.858,190.481z M294.454,179.165c1.178-0.966,1.768-2.345,1.768-4.137
			c0-1.791-0.59-3.164-1.768-4.119c-1.178-0.954-2.887-1.432-5.125-1.432h-6.011v11.136h6.011
			C291.567,180.614,293.275,180.132,294.454,179.165z"/>
		<path class="st1" d="M344.938,184.963h-13.151l-2.287,5.199c-0.264,0.6-0.858,0.987-1.513,0.987h0
			c-1.201,0-2.002-1.241-1.506-2.335l9.427-20.816c0.44-0.971,1.408-1.595,2.474-1.595l0,0c1.065,0,2.032,0.623,2.473,1.593
			l9.438,20.775c0.506,1.114-0.308,2.379-1.532,2.379l0,0c-0.667,0-1.272-0.394-1.541-1.005L344.938,184.963z M343.701,182.134
			l-5.339-12.126l-5.338,12.126H343.701z"/>
		<path class="st1" d="M377.99,189.72l-0.033-16.6l-8.528,14.325c-0.258,0.434-0.726,0.7-1.231,0.7l0,0
			c-0.504,0-0.97-0.264-1.229-0.696l-8.527-14.223v16.491c0,0.791-0.642,1.433-1.433,1.433h-0.528c-0.791,0-1.433-0.642-1.433-1.433
			v-21.881c0-0.791,0.642-1.433,1.433-1.433h0.651c0.506,0,0.974,0.267,1.232,0.702l9.906,16.692l9.767-16.685
			c0.257-0.439,0.728-0.709,1.237-0.709h0.647c0.791,0,1.432,0.64,1.433,1.431l0.031,21.881c0.001,0.792-0.641,1.435-1.433,1.435
			h-0.528C378.633,191.15,377.992,190.51,377.99,189.72z"/>
	</g>
	<g>
		<g>
			<path class="st0" d="M548.589,87.226c-4.61,0-8.361-3.75-8.361-8.36s3.751-8.36,8.361-8.36c4.609,0,8.357,3.75,8.357,8.36
				S553.197,87.226,548.589,87.226z M548.589,71.607c-4.004,0-7.26,3.257-7.26,7.259s3.257,7.259,7.26,7.259
				c4.001,0,7.257-3.257,7.257-7.259S552.59,71.607,548.589,71.607z"/>
		</g>
		<g>
			<g>
				<path class="st0" d="M545.757,82.729v-7.876h3.492c0.702,0,1.236,0.071,1.601,0.213c0.365,0.141,0.658,0.391,0.876,0.749
					s0.328,0.754,0.328,1.187c0,0.559-0.18,1.029-0.543,1.413c-0.362,0.384-0.921,0.626-1.676,0.731
					c0.276,0.132,0.486,0.263,0.629,0.392c0.304,0.279,0.593,0.629,0.865,1.048l1.37,2.144h-1.311l-1.042-1.639
					c-0.304-0.473-0.556-0.835-0.752-1.085c-0.197-0.25-0.373-0.427-0.53-0.527c-0.155-0.1-0.314-0.17-0.475-0.21
					c-0.118-0.025-0.312-0.038-0.58-0.038H546.8v3.497H545.757z M546.8,78.329h2.24c0.476,0,0.849-0.049,1.117-0.147
					c0.269-0.099,0.473-0.257,0.612-0.473c0.14-0.217,0.21-0.452,0.21-0.707c0-0.373-0.135-0.679-0.405-0.919
					c-0.271-0.24-0.698-0.36-1.282-0.36H546.8V78.329z"/>
			</g>
		</g>
	</g>
</g>
</svg>
